<?xml version="1.0" encoding="UTF-8" standalone="no"?>
<!DOCTYPE svg PUBLIC "-//W3C//DTD SVG 1.1//EN" "http://www.w3.org/Graphics/SVG/1.1/DTD/svg11.dtd">
<svg width="100%" height="100%" viewBox="0 0 86 86" version="1.1" xmlns="http://www.w3.org/2000/svg" xmlns:xlink="http://www.w3.org/1999/xlink" xml:space="preserve" xmlns:serif="http://www.serif.com/" style="fill-rule:evenodd;clip-rule:evenodd;stroke-linejoin:round;stroke-miterlimit:2;">
    <g transform="matrix(6.12323e-17,-1,1,6.12323e-17,0,86)">
        <g id="Layer_1">
            <path d="M85.7,84.277C85.7,85.063 85.063,85.7 84.277,85.7L1.723,85.7C0.937,85.7 0.3,85.063 0.3,84.277L0.3,1.723C0.3,0.937 0.937,0.3 1.723,0.3L84.276,0.3C85.062,0.3 85.699,0.937 85.699,1.723L85.699,84.277L85.7,84.277Z" style="fill:url(#_Linear1);fill-rule:nonzero;"/>
        </g>
    </g>
    <g transform="matrix(1.3632,0,0,1.3632,11.0249,9.99968)">
        <g>
            <g transform="matrix(1,0,0,1.0013,0,0.672509)">
                <path d="M38.564,0L8.436,0C3.785,0 0,3.785 0,8.437L0,38.565C0,43.216 3.785,47 8.436,47L38.564,47C43.214,47 47.001,43.216 47.001,38.564L47.001,8.437C47,3.785 43.215,0 38.564,0ZM34.646,40.975C29.996,40.975 26.21,37.19 26.21,32.538C26.21,32.128 26.25,31.726 26.306,31.333L20.691,31.333C20.749,31.729 20.787,32.128 20.787,32.538C20.787,37.189 17.003,40.975 12.351,40.975C7.699,40.975 3.915,37.19 3.915,32.538C3.915,31.18 4.245,29.898 4.818,28.76L4.818,8.437C4.818,6.443 6.44,4.821 8.433,4.821L38.561,4.821C40.555,4.821 42.176,6.443 42.176,8.437L42.176,28.762C42.749,29.902 43.079,31.181 43.079,32.54C43.083,37.19 39.299,40.975 34.646,40.975Z" style="fill:rgb(179,12,13);fill-rule:nonzero;"/>
            </g>
            <g transform="matrix(1,0,0,1,0,0.733569)">
                <path d="M12.353,25.309C8.366,25.309 5.123,28.552 5.123,32.539C5.123,36.525 8.366,39.769 12.353,39.769C16.34,39.769 19.583,36.525 19.583,32.539C19.583,28.553 16.34,25.309 12.353,25.309ZM12.353,30.128C11.355,30.128 10.545,29.316 10.545,28.32C10.545,27.323 11.355,26.511 12.353,26.511C13.351,26.511 14.161,27.323 14.161,28.32C14.16,29.317 13.351,30.128 12.353,30.128Z" style="fill:rgb(142,24,25);fill-rule:nonzero;"/>
            </g>
            <g transform="matrix(1,0,0,1,0,0.733569)">
                <path d="M34.646,25.309C30.659,25.309 27.417,28.553 27.417,32.539C27.417,36.525 30.659,39.769 34.646,39.769C38.634,39.769 41.876,36.523 41.876,32.539C41.878,28.552 38.637,25.309 34.646,25.309ZM40.673,32.54C40.673,33.537 39.863,34.349 38.865,34.349C37.867,34.349 37.056,33.537 37.056,32.54C37.056,31.543 37.867,30.731 38.865,30.731C39.863,30.731 40.673,31.542 40.673,32.54Z" style="fill:rgb(142,24,25);fill-rule:nonzero;"/>
            </g>
            <g transform="matrix(1,0,0,1,0,0.733569)">
                <path d="M12.402,23.593L17.474,23.593C18.003,23.593 18.427,23.17 18.427,22.642L18.427,20.109C18.427,19.58 18.003,19.156 17.474,19.156L12.402,19.156C11.877,19.156 11.448,19.579 11.448,20.109L11.448,22.642C11.448,23.169 11.877,23.593 12.402,23.593Z" style="fill:white;fill-opacity:0.95;fill-rule:nonzero;"/>
            </g>
            <g transform="matrix(1,0,0,1,0,0.733569)">
                <path d="M12.402,17.885L17.474,17.885C18.003,17.885 18.427,17.461 18.427,16.933L18.427,14.4C18.427,13.872 18.003,13.448 17.474,13.448L12.402,13.448C11.877,13.448 11.448,13.872 11.448,14.4L11.448,16.934C11.448,17.461 11.877,17.885 12.402,17.885Z" style="fill:white;fill-opacity:0.95;fill-rule:nonzero;"/>
            </g>
            <g transform="matrix(1,0,0,1,0,0.733569)">
                <path d="M26.034,19.157L20.966,19.157C20.436,19.157 20.008,19.58 20.008,20.11L20.008,22.643C20.008,23.17 20.436,23.594 20.966,23.594L26.034,23.594C26.564,23.594 26.992,23.171 26.992,22.643L26.992,20.11C26.992,19.581 26.564,19.157 26.034,19.157Z" style="fill:white;fill-opacity:0.95;fill-rule:nonzero;"/>
            </g>
            <g transform="matrix(1,0,0,1,0,0.733569)">
                <path d="M29.525,23.593L34.597,23.593C35.121,23.593 35.55,23.17 35.55,22.642L35.55,20.109C35.55,19.58 35.121,19.156 34.597,19.156L29.525,19.156C28.996,19.156 28.572,19.579 28.572,20.109L28.572,22.642C28.572,23.169 28.996,23.593 29.525,23.593Z" style="fill:white;fill-opacity:0.95;fill-rule:nonzero;"/>
            </g>
            <g transform="matrix(1,0,0,1,0,0.733569)">
                <path d="M29.525,17.885L34.597,17.885C35.121,17.885 35.55,17.461 35.55,16.933L35.55,14.4C35.55,13.872 35.121,13.448 34.597,13.448L29.525,13.448C28.996,13.448 28.572,13.872 28.572,14.4L28.572,16.934C28.572,17.461 28.996,17.885 29.525,17.885Z" style="fill:white;fill-opacity:0.95;fill-rule:nonzero;"/>
            </g>
            <g transform="matrix(1,0,0,1,0,0.733569)">
                <path d="M29.525,12.177L34.597,12.177C35.121,12.177 35.55,11.753 35.55,11.224L35.55,8.691C35.55,8.164 35.121,7.74 34.597,7.74L29.525,7.74C28.996,7.74 28.572,8.164 28.572,8.691L28.572,11.224C28.572,11.753 28.996,12.177 29.525,12.177Z" style="fill:white;fill-opacity:0.95;fill-rule:nonzero;"/>
            </g>
        </g>
    </g>
    <defs>
        <linearGradient id="_Linear1" x1="0" y1="0" x2="1" y2="0" gradientUnits="userSpaceOnUse" gradientTransform="matrix(42.7,0,0,42.7,43,43)"><stop offset="0" style="stop-color:rgb(255,158,3);stop-opacity:1"/><stop offset="1" style="stop-color:rgb(255,219,14);stop-opacity:1"/></linearGradient>
    </defs>
</svg>
